<?xml version="1.0" encoding="utf-8"?>
<!-- Generator: Adobe Illustrator 19.0.0, SVG Export Plug-In . SVG Version: 6.00 Build 0)  -->
<svg version="1.1" id="Layer_1" xmlns="http://www.w3.org/2000/svg" xmlns:xlink="http://www.w3.org/1999/xlink" x="0px" y="0px"
	 viewBox="0 0 512 512" style="enable-background:new 0 0 512 512;" xml:space="preserve">
<style type="text/css">
	.st0{fill:#87D4ED;}
	.st1{fill:none;stroke:#FFFFFF;stroke-width:15;stroke-miterlimit:10;}
</style>
<path class="st0" d="M462,512H50c-27.5,0-50-22.5-50-50V50C0,22.5,22.5,0,50,0h412c27.5,0,50,22.5,50,50v412
	C512,489.5,489.5,512,462,512z"/>
<g id="g10" transform="matrix(1.25,0,0,-1.25,0,47.5)">
	<g id="g12">
		<g id="XMLID_4_">
			<g>
				<g>
					<g id="g14">
						<g id="g20" transform="translate(30,25.9399)">
							<path id="path22_2_" class="st1" d="M137-245.6c0,37.8-31.5,47.3-31.5,87.8c0,38,33.3,68.8,69.8,68.8s68.8-30.8,68.8-68.8"/>
							<path id="path22_1_" class="st1" d="M244.1-157c0-40.6-31.5-50.8-31.5-88.6"/>
						</g>
						<g id="g32" transform="translate(25,6)">
							<path id="path34" class="st1" d="M217.6-263.5c0-7-5.6-12.6-12.6-12.6h-50.4c-7,0-12.6,5.6-12.6,12.6v37.8h75.6V-263.5z"/>
						</g>
					</g>
				</g>
			</g>
		</g>
	</g>
</g>
</svg>
