<?xml version="1.0" encoding="utf-8"?>
<!-- Generator: Adobe Illustrator 19.0.0, SVG Export Plug-In . SVG Version: 6.00 Build 0)  -->
<svg version="1.1" id="Layer_1" xmlns="http://www.w3.org/2000/svg" xmlns:xlink="http://www.w3.org/1999/xlink" x="0px" y="0px"
	 viewBox="0 0 512 512" style="enable-background:new 0 0 512 512;fill:#F64646;" xml:space="preserve">
<g id="XMLID_1_">
	<g id="XMLID_69_">
		<path id="XMLID_73_" d="M0,285.3c33,0,66,0,99.1,0c4.8,0,9.5,0,14.3,0c7.8,0,15.4-6.9,15-15c-0.4-8.1-6.6-15-15-15
			c-33,0-66,0-99.1,0c-4.8,0-9.5,0-14.3,0c-7.8,0-15.4,6.9-15,15C-14.6,278.5-8.4,285.3,0,285.3L0,285.3z"/>
	</g>
</g>
<g id="XMLID_11_">
	<g id="XMLID_63_">
		<path id="XMLID_67_" d="M408.6,285.3c30.2,0,60.3,0,90.5,0c4.3,0,8.6,0,12.9,0c7.8,0,15.4-6.9,15-15s-6.6-15-15-15
			c-30.2,0-60.3,0-90.5,0c-4.3,0-8.6,0-12.9,0c-7.8,0-15.4,6.9-15,15C394,278.5,400.2,285.3,408.6,285.3L408.6,285.3z"/>
	</g>
</g>
<g id="XMLID_2_">
	<g id="XMLID_57_">
		<path id="XMLID_61_" d="M126.3,277.9c13.6-26.9,27.2-53.8,40.8-80.8c1.9-3.9,3.9-7.7,5.8-11.6c3.7-7.2,1.9-16.3-5.4-20.5
			c-6.7-3.9-16.9-1.9-20.5,5.4c-13.6,26.9-27.2,53.8-40.8,80.8c-1.9,3.9-3.9,7.7-5.8,11.6c-3.7,7.2-1.9,16.3,5.4,20.5
			C112.5,287.2,122.6,285.2,126.3,277.9L126.3,277.9z"/>
	</g>
</g>
<g id="XMLID_3_">
	<g id="XMLID_51_">
		<path id="XMLID_55_" d="M145.5,182c5,27.3,9.9,54.5,14.9,81.8c7.9,43.4,15.8,86.9,23.7,130.3c1.8,10,3.6,19.9,5.4,29.9
			c1.5,8,11.1,12.5,18.5,10.5c8.4-2.3,11.9-10.5,10.5-18.5c-5-27.3-9.9-54.5-14.9-81.8c-7.9-43.4-15.8-86.9-23.7-130.3
			c-1.8-10-3.6-19.9-5.4-29.9c-1.5-8-11.1-12.5-18.5-10.5C147.6,165.8,144.1,174,145.5,182L145.5,182z"/>
	</g>
</g>
<g id="XMLID_4_">
	<g id="XMLID_45_">
		<path id="XMLID_49_" d="M219,420c1.5-11.7,3-23.3,4.6-35c3.7-28,7.3-56,11-84c4.4-33.9,8.9-67.8,13.3-101.7
			c3.8-29.3,7.7-58.6,11.5-87.9c1.9-14.2,4.7-28.6,5.6-42.8c0-0.2,0.1-0.4,0.1-0.6c1-7.8-7.6-15.3-15-15c-9,0.4-13.9,6.6-15,15
			c-1.5,11.7-3,23.3-4.6,35c-3.7,28-7.3,56-11,84c-4.4,33.9-8.9,67.8-13.3,101.7c-3.8,29.3-7.7,58.6-11.5,87.9
			c-1.9,14.2-4.7,28.6-5.6,42.8c0,0.2-0.1,0.4-0.1,0.6c-1,7.8,7.6,15.3,15,15C213,434.6,217.9,428.4,219,420L219,420z"/>
	</g>
</g>
<g id="XMLID_5_">
	<g id="XMLID_39_">
		<path id="XMLID_43_" d="M235.5,72.3c6.2,29.7,12.5,59.4,18.7,89.1c9.8,47,19.7,93.9,29.5,140.9c2.3,10.8,4.5,21.7,6.8,32.5
			c1.7,8,11,12.7,18.5,10.7c8.2-2.3,12.2-10.7,10.5-18.8c-6.2-29.7-12.5-59.4-18.7-89.1c-9.8-47-19.7-93.9-29.5-140.9
			c-2.3-10.8-4.5-21.7-6.8-32.5c-1.7-8-11-12.7-18.5-10.7C237.8,55.8,233.8,64.2,235.5,72.3L235.5,72.3z"/>
	</g>
</g>
<g id="XMLID_6_">
	<g id="XMLID_33_">
		<path id="XMLID_37_" d="M319.5,335c10.5-28.3,21-56.6,31.5-84.9c1.5-4,3-8.1,4.5-12.1c2.7-7.4-3-16.8-10.5-18.5
			c-8.5-1.9-15.5,2.6-18.5,10.5c-10.5,28.3-21,56.6-31.5,84.9c-1.5,4-3,8.1-4.5,12.1c-2.7,7.4,3,16.8,10.5,18.5
			C309.5,347.4,316.5,342.9,319.5,335L319.5,335z"/>
	</g>
</g>
<g id="XMLID_7_">
	<g id="XMLID_27_">
		<path id="XMLID_31_" d="M326.5,238c11.1,30,22.2,60.1,33.2,90.1c1.6,4.3,3.2,8.6,4.8,12.9c2.8,7.6,10.2,12.8,18.5,10.5
			c7.3-2,13.3-10.8,10.5-18.5c-11.1-30-22.2-60.1-33.2-90.1c-1.6-4.3-3.2-8.6-4.8-12.9c-2.8-7.6-10.2-12.8-18.5-10.5
			C329.7,221.5,323.7,230.3,326.5,238L326.5,238z"/>
	</g>
</g>
<g id="XMLID_8_">
	<g id="XMLID_21_">
		<path id="XMLID_25_" d="M392,344.6c9.9-22.2,19.7-44.4,29.6-66.7c3.3-7.4,2.2-16.1-5.4-20.5c-6.4-3.7-17.2-2.1-20.5,5.4
			c-9.9,22.2-19.7,44.4-29.6,66.7c-3.3,7.4-2.2,16.1,5.4,20.5C377.8,353.7,388.6,352,392,344.6L392,344.6z"/>
	</g>
</g>
</svg>
