<?xml version="1.0" encoding="utf-8"?>
<!-- Generator: Adobe Illustrator 19.0.0, SVG Export Plug-In . SVG Version: 6.00 Build 0)  -->
<svg version="1.1" id="Layer_1" xmlns="http://www.w3.org/2000/svg" xmlns:xlink="http://www.w3.org/1999/xlink" x="0px" y="0px"
	 viewBox="0 0 2048 512" style="enable-background:new 0 0 2048 512;" xml:space="preserve">
<style type="text/css">
	.st0{fill:none;stroke:#88D4EC;stroke-width:18;stroke-miterlimit:10;}
	.st1{fill:#89D4EB;}
	.st2{font-family:'Roboto-Light';}
	.st3{font-size:380px;}
</style>
<g id="g10" transform="matrix(1.25,0,0,-1.25,0,47.5)">
	<g id="g12">
		<g id="XMLID_4_">
			<g id="XMLID_3_">
				<g id="XMLID_5_">
					<g id="g14">
						<g id="g20" transform="translate(30,25.9399)">
							<path id="path22_2_" class="st0" d="M231.4-245.6c0,37.8-31.5,47.3-31.5,87.8c0,38,33.3,68.8,69.8,68.8s68.8-30.8,68.8-68.8"
								/>
							<path id="path22_1_" class="st0" d="M338.5-157c0-40.6-31.5-50.8-31.5-88.6"/>
						</g>
						<g id="g32" transform="translate(25,6)">
							<path id="path34" class="st0" d="M312-263.5c0-7-5.6-12.6-12.6-12.6H249c-7,0-12.6,5.6-12.6,12.6v37.8H312V-263.5z"/>
						</g>
					</g>
				</g>
			</g>
		</g>
	</g>
</g>
<text id="XMLID_1_" transform="matrix(1 0 0 1 527.6982 394.5594)" class="st1 st2 st3">Lumios</text>
</svg>
